<svg width="16" height="20" viewBox="0 0 16 20" fill="none" xmlns="http://www.w3.org/2000/svg">
<path fill-rule="evenodd" clip-rule="evenodd" d="M8 0C12.1421 0 15.5 3.19996 15.5 7.14732V7.57782C15.5 9.15722 14.9822 10.6971 14.0189 11.9823L8.01482 19.9927C8.00756 20.0024 7.99245 20.0024 7.98519 19.9927L1.98114 11.9823C1.01784 10.6971 0.5 9.15722 0.5 7.57782V7.14732C0.5 3.19996 3.85786 0 8 0ZM6.66733 4.76428C5.82517 5.14804 5.21352 5.87379 5.00552 6.73609C4.79753 7.59839 5.01582 8.50338 5.59862 9.19489C6.18141 9.8864 7.06527 10.2892 8 10.2892C8.93473 10.2892 9.81859 9.8864 10.4014 9.19489C10.9842 8.50338 11.2025 7.59839 10.9945 6.73609C10.7865 5.87379 10.1748 5.14804 9.33267 4.76428C8.49051 4.38052 7.50949 4.38052 6.66733 4.76428Z" fill="#0266C1"/>
</svg>
